# xmcd
#
# Track frame offsets: 
#        150
#        20256
#        32258
#        54830
#        73703
#        94300
#        130814
#        158223
#        181712
#        198393
#
# Disc length: 3052 seconds
#
# Revision: 0
# Processed by: cddbd v1.5.2PL0 Copyright (c) Steve Scherf et al.
# Submitted via: ExactAudioCopyFreeDBPlugin 1.0
#
DISCID=760bea0a
DTITLE=Joe Bonamassa - Beth Hart
DYEAR=1900
DGENRE=Blues
TTITLE0=Sinner´s Prayer
TTITLE1=Chocolate Jesus
TTITLE2=Your Heart Is As Black As Night
TTITLE3=For My Friends
TTITLE4=Don´t Explain
TTITLE5=I´d Rather Go Blind
TTITLE6=Something´s Got A Hold On Me
TTITLE7=I´ll Take Care Of You
TTITLE8=Well, Well
TTITLE9=Ain´t No Way
EXTD=
EXTT0=
EXTT1=
EXTT2=
EXTT3=
EXTT4=
EXTT5=
EXTT6=
EXTT7=
EXTT8=
EXTT9=
PLAYORDER=
